<mxfile host="app.diagrams.net" agent="Mozilla/5.0 (Windows NT 10.0; Win64; x64) AppleWebKit/537.36 (KHTML, like Gecko) Chrome/134.0.0.0 Safari/537.36 Edg/134.0.0.0" version="26.1.0">
  <diagram name="Page-1" id="xpWsUoMC6G3oUbRDl_Jd">
    <mxGraphModel dx="1106" dy="567" grid="1" gridSize="10" guides="1" tooltips="1" connect="1" arrows="1" fold="1" page="1" pageScale="1" pageWidth="850" pageHeight="1100" math="0" shadow="0">
      <root>
        <mxCell id="0" />
        <mxCell id="1" parent="0" />
        <mxCell id="fNnDw5SYeR6E-zPJxPh3-11" value="" style="edgeStyle=orthogonalEdgeStyle;rounded=0;orthogonalLoop=1;jettySize=auto;html=1;" parent="1" source="fNnDw5SYeR6E-zPJxPh3-1" target="fNnDw5SYeR6E-zPJxPh3-7" edge="1">
          <mxGeometry relative="1" as="geometry" />
        </mxCell>
        <mxCell id="Uy48yCFyxt8rlnTjZgA--2" value="" style="edgeStyle=orthogonalEdgeStyle;rounded=0;orthogonalLoop=1;jettySize=auto;html=1;" edge="1" parent="1" source="fNnDw5SYeR6E-zPJxPh3-1" target="fNnDw5SYeR6E-zPJxPh3-19">
          <mxGeometry relative="1" as="geometry" />
        </mxCell>
        <mxCell id="fNnDw5SYeR6E-zPJxPh3-1" value="ผู้ใช้บริการ" style="rounded=1;whiteSpace=wrap;html=1;" parent="1" vertex="1">
          <mxGeometry x="80" y="160" width="120" height="60" as="geometry" />
        </mxCell>
        <mxCell id="fNnDw5SYeR6E-zPJxPh3-7" value="เพิ่มรายการรายจ่าย" style="rounded=0;whiteSpace=wrap;html=1;" parent="1" vertex="1">
          <mxGeometry x="80" y="40" width="120" height="60" as="geometry" />
        </mxCell>
        <mxCell id="fNnDw5SYeR6E-zPJxPh3-16" value="ผ่านอนุมัติ" style="text;html=1;align=center;verticalAlign=middle;whiteSpace=wrap;rounded=0;labelBorderColor=default;textShadow=0;" parent="1" vertex="1">
          <mxGeometry x="500" y="140" width="60" height="30" as="geometry" />
        </mxCell>
        <mxCell id="fNnDw5SYeR6E-zPJxPh3-22" value="" style="edgeStyle=orthogonalEdgeStyle;rounded=0;orthogonalLoop=1;jettySize=auto;html=1;" parent="1" source="fNnDw5SYeR6E-zPJxPh3-19" target="fNnDw5SYeR6E-zPJxPh3-21" edge="1">
          <mxGeometry relative="1" as="geometry" />
        </mxCell>
        <mxCell id="fNnDw5SYeR6E-zPJxPh3-19" value="ผู้อนุมัติ&lt;br&gt;ตามตำแหน่ง" style="rounded=1;whiteSpace=wrap;html=1;" parent="1" vertex="1">
          <mxGeometry x="240" y="160" width="120" height="60" as="geometry" />
        </mxCell>
        <mxCell id="XDVu7FTOS-KyhrpA0AVe-4" value="" style="edgeStyle=orthogonalEdgeStyle;rounded=0;orthogonalLoop=1;jettySize=auto;html=1;" parent="1" source="fNnDw5SYeR6E-zPJxPh3-21" target="fNnDw5SYeR6E-zPJxPh3-23" edge="1">
          <mxGeometry relative="1" as="geometry" />
        </mxCell>
        <mxCell id="XDVu7FTOS-KyhrpA0AVe-5" style="edgeStyle=orthogonalEdgeStyle;rounded=0;orthogonalLoop=1;jettySize=auto;html=1;entryX=0.5;entryY=1;entryDx=0;entryDy=0;" parent="1" source="fNnDw5SYeR6E-zPJxPh3-21" target="fNnDw5SYeR6E-zPJxPh3-1" edge="1">
          <mxGeometry relative="1" as="geometry">
            <Array as="points">
              <mxPoint x="460" y="280" />
              <mxPoint x="140" y="280" />
            </Array>
          </mxGeometry>
        </mxCell>
        <mxCell id="fNnDw5SYeR6E-zPJxPh3-21" value="" style="rhombus;whiteSpace=wrap;html=1;" parent="1" vertex="1">
          <mxGeometry x="400" y="150" width="120" height="80" as="geometry" />
        </mxCell>
        <mxCell id="fNnDw5SYeR6E-zPJxPh3-23" value="จบการดำเนินการ" style="rounded=1;whiteSpace=wrap;html=1;" parent="1" vertex="1">
          <mxGeometry x="560" y="160" width="120" height="60" as="geometry" />
        </mxCell>
        <mxCell id="fNnDw5SYeR6E-zPJxPh3-27" value="ไม่ผ่านอนุมัติ" style="text;html=1;align=center;verticalAlign=middle;whiteSpace=wrap;rounded=0;labelBorderColor=default;textShadow=0;" parent="1" vertex="1">
          <mxGeometry x="350" y="240" width="110" height="30" as="geometry" />
        </mxCell>
      </root>
    </mxGraphModel>
  </diagram>
</mxfile>
